<svg width="20" height="20" viewBox="0 0 20 20" fill="none" xmlns="http://www.w3.org/2000/svg">
<path fill-rule="evenodd" clip-rule="evenodd" d="M1.70781 9.16667H5.53963C5.73847 6.54812 6.62742 4.0361 8.10551 1.88296C4.67852 2.67965 2.06286 5.59065 1.70781 9.16667ZM10 2.11969C8.40188 4.14457 7.43184 6.5951 7.2117 9.16667H12.7883C12.5682 6.5951 11.5981 4.14457 10 2.11969ZM12.7883 10.8333C12.5682 13.4049 11.5981 15.8554 10 17.8803C8.40188 15.8554 7.43184 13.4049 7.2117 10.8333H12.7883ZM5.53963 10.8333H1.70781C2.06286 14.4094 4.67852 17.3204 8.10551 18.117C6.62742 15.9639 5.73847 13.4519 5.53963 10.8333ZM11.8945 18.117C13.3726 15.9639 14.2615 13.4519 14.4604 10.8333H18.2922C17.9371 14.4094 15.3215 17.3204 11.8945 18.117ZM18.2922 9.16667H14.4604C14.2615 6.54812 13.3726 4.0361 11.8945 1.88296C15.3215 2.67965 17.9371 5.59065 18.2922 9.16667ZM0 10C0 4.47715 4.47715 0 10 0C15.5228 0 20 4.47715 20 10C20 15.5228 15.5228 20 10 20C4.47715 20 0 15.5228 0 10Z" fill="white"/>
</svg>
