<svg width="17" height="17" viewBox="0 0 17 17" fill="none" xmlns="http://www.w3.org/2000/svg">
<path d="M15.1992 8.19922C15.1992 12.0652 12.0652 15.1992 8.19922 15.1992C4.33323 15.1992 1.19922 12.0652 1.19922 8.19922C1.19922 4.33323 4.33323 1.19922 8.19922 1.19922C12.0652 1.19922 15.1992 4.33323 15.1992 8.19922Z" fill="#F5F5F5"/>
<path opacity="0.7" fill-rule="evenodd" clip-rule="evenodd" d="M16.4 8.2C16.4 12.7287 12.7287 16.4 8.2 16.4C3.67126 16.4 0 12.7287 0 8.2C0 3.67126 3.67126 0 8.2 0C12.7287 0 16.4 3.67126 16.4 8.2ZM8.2 15.2C12.066 15.2 15.2 12.066 15.2 8.2C15.2 4.33401 12.066 1.2 8.2 1.2C4.33401 1.2 1.2 4.33401 1.2 8.2C1.2 12.066 4.33401 15.2 8.2 15.2Z" fill="black"/>
<path opacity="0.7" d="M7.86721 12.349V6.87623H9.27112V12.349H7.86721ZM7.09961 7.92442V6.87623H9.27112V7.92442H7.09961ZM8.38232 5.22111C8.10625 5.22111 7.90088 5.15056 7.76621 5.00946C7.63828 4.86164 7.57431 4.68022 7.57431 4.4652C7.57431 4.23675 7.63828 4.05198 7.76621 3.91087C7.90088 3.76977 8.10625 3.69922 8.38232 3.69922C8.65839 3.69922 8.86039 3.76977 8.98832 3.91087C9.11626 4.05198 9.18022 4.23675 9.18022 4.4652C9.18022 4.68022 9.11626 4.86164 8.98832 5.00946C8.86039 5.15056 8.65839 5.22111 8.38232 5.22111Z" fill="black"/>
</svg>
