<svg width="14" height="14" viewBox="0 0 14 14" fill="none" xmlns="http://www.w3.org/2000/svg">
<path d="M5.83333 0V7H8.16667V0H5.83333Z" fill="white"/>
<path d="M2.33333 7C2.33333 5.47419 3.06436 4.11946 4.20022 3.26607L2.79864 1.40058C1.10144 2.67573 0 4.7094 0 7C0 10.866 3.13401 14 7 14C10.866 14 14 10.866 14 7C14 4.7094 12.8986 2.67573 11.2014 1.40058L9.79978 3.26607C10.9356 4.11946 11.6667 5.47419 11.6667 7C11.6667 9.57733 9.57733 11.6667 7 11.6667C4.42267 11.6667 2.33333 9.57733 2.33333 7Z" fill="white"/>
</svg>
