<svg width="18" height="20" viewBox="0 0 18 20" fill="none" xmlns="http://www.w3.org/2000/svg">
<path fill-rule="evenodd" clip-rule="evenodd" d="M8.99399 12.0001C5.73863 12.0016 2.48376 13.288 0 15.8592V20.0001H18.0001V15.8592C15.5163 13.288 12.2615 12.0016 9.00611 12.0001M8.99399 12.0001C8.99601 12.0001 8.99803 12.0001 9.00006 12.0001L8.99399 12.0001ZM8.99436 10.0001C6.23554 9.99698 4.00003 7.75957 4.00003 5.00003C4.00003 2.23859 6.23862 0 9.00006 0C11.7615 0 14.0001 2.23859 14.0001 5.00003C14.0001 7.76147 11.7615 10.0001 9.00006 10.0001M16.0001 16.7069C11.985 13.0978 6.01511 13.0978 2 16.7069V18.0001H16.0001V16.7069ZM9.00006 8.00005C10.6569 8.00005 12.0001 6.6569 12.0001 5.00003C12.0001 3.34316 10.6569 2 9.00006 2C7.34319 2 6.00003 3.34316 6.00003 5.00003C6.00003 6.6569 7.34319 8.00005 9.00006 8.00005Z" fill="#B2B2B2"/>
</svg>
