<svg width="16" height="16" viewBox="0 0 16 16" fill="none" xmlns="http://www.w3.org/2000/svg">
<path fill-rule="evenodd" clip-rule="evenodd" d="M16 8C16 12.4183 12.4183 16 8 16C3.58172 16 0 12.4183 0 8C0 3.58172 3.58172 0 8 0C12.4183 0 16 3.58172 16 8ZM12 8C12 5.79086 10.2091 4 8 4V2C11.3137 2 14 4.68629 14 8C14 11.3137 11.3137 14 8 14V12C10.2091 12 12 10.2091 12 8ZM8.92705 6.6459L8 5L7.07295 6.6459L5 6.90983L6.5 8.19098L6.1459 10L8 9.1459L9.8541 10L9.5 8.19098L11 6.90983L8.92705 6.6459Z" fill="white"/>
</svg>
