<svg width="20" height="22" viewBox="0 0 20 22" fill="none" xmlns="http://www.w3.org/2000/svg">
<path d="M7.43655 18.3711L8.02099 19.6856C8.19473 20.0768 8.47827 20.4093 8.83722 20.6426C9.19616 20.8759 9.6151 21.0001 10.0432 21C10.4713 21.0001 10.8903 20.8759 11.2492 20.6426C11.6082 20.4093 11.8917 20.0768 12.0654 19.6856L12.6499 18.3711C12.8579 17.9047 13.2079 17.5159 13.6499 17.26C14.0947 17.0034 14.6092 16.8941 15.1199 16.9478L16.5499 17.1C16.9755 17.145 17.4051 17.0656 17.7866 16.8713C18.168 16.6771 18.4849 16.3763 18.6988 16.0056C18.9129 15.635 19.015 15.2103 18.9925 14.7829C18.97 14.3555 18.824 13.9438 18.5721 13.5978L17.7254 12.4344C17.424 12.0171 17.2629 11.5148 17.2654 11C17.2653 10.4866 17.4279 9.98635 17.7299 9.57111L18.5765 8.40778C18.8284 8.06175 18.9745 7.65007 18.9969 7.22267C19.0194 6.79528 18.9174 6.37054 18.7032 6C18.4893 5.62923 18.1724 5.32849 17.791 5.13423C17.4096 4.93997 16.98 4.86053 16.5543 4.90556L15.1243 5.05778C14.6137 5.11141 14.0991 5.00212 13.6543 4.74556C13.2115 4.48825 12.8614 4.09736 12.6543 3.62889L12.0654 2.31444C11.8917 1.92317 11.6082 1.59072 11.2492 1.3574C10.8903 1.12408 10.4713 0.99993 10.0432 1C9.6151 0.99993 9.19616 1.12408 8.83722 1.3574C8.47827 1.59072 8.19473 1.92317 8.02099 2.31444L7.43655 3.62889C7.22947 4.09736 6.87942 4.48825 6.43655 4.74556C5.99176 5.00212 5.47722 5.11141 4.96655 5.05778L3.5321 4.90556C3.10643 4.86053 2.67684 4.93997 2.29542 5.13423C1.91399 5.32849 1.59712 5.62923 1.38321 6C1.16903 6.37054 1.067 6.79528 1.08948 7.22267C1.11196 7.65007 1.258 8.06175 1.50988 8.40778L2.35655 9.57111C2.65849 9.98635 2.82108 10.4866 2.82099 11C2.82108 11.5134 2.65849 12.0137 2.35655 12.4289L1.50988 13.5922C1.258 13.9382 1.11196 14.3499 1.08948 14.7773C1.067 15.2047 1.16903 15.6295 1.38321 16C1.59733 16.3706 1.91424 16.6712 2.29561 16.8654C2.67698 17.0596 3.10646 17.1392 3.5321 17.0944L4.9621 16.9422C5.47277 16.8886 5.98732 16.9979 6.4321 17.2544C6.87663 17.511 7.22831 17.902 7.43655 18.3711Z" stroke="white" stroke-width="1.5" stroke-linecap="round" stroke-linejoin="round"/>
<path d="M10.0414 14C11.6983 14 13.0414 12.6569 13.0414 11C13.0414 9.34315 11.6983 8 10.0414 8C8.38457 8 7.04143 9.34315 7.04143 11C7.04143 12.6569 8.38457 14 10.0414 14Z" stroke="white" stroke-width="1.5" stroke-linecap="round" stroke-linejoin="round"/>
</svg>
